<svg xmlns="http://www.w3.org/2000/svg" viewBox="0 0 499.76 668.18"><defs><style>.cls-1{fill:#ffb000;stroke:#fff;stroke-miterlimit:10;stroke-width:3px;}.cls-2{fill:#d87600;}</style></defs><title>Fichier 2</title><g id="Calque_2" data-name="Calque 2"><g id="Pin"><polygon class="cls-1" points="56.26 72.75 56.26 52.06 82.59 27.93 84.46 19.56 115.03 19.56 145.59 9.56 183.15 9.56 194.5 1.74 203.23 6.21 202.36 27.66 195.77 31.27 204.11 42.26 229.43 46.17 235.55 57 253.01 59.95 258.57 66.84 263.26 60.92 263.26 50.09 283.02 44.17 292.91 50.09 331.47 58.95 342.02 56.98 364.25 58.95 367.26 72.75 367.26 87.53 354.06 72.84 378.99 131.87 393.26 149.6 393.26 170.29 408.26 188.03 408.26 205.76 424.52 211.32 441.65 238.56 436.41 238.56 448.12 254.18 498.26 239.26 498.26 257 474.51 314.44 427.66 372.28 411.95 404.79 414.57 440.26 423.31 456.03 418.94 502.33 397.45 517.86 378.77 538.79 380.52 572.29 374.41 580.17 360.52 595.84 356.07 613.67 357.81 628.45 346.46 630.42 316.79 663.9 289.72 666.67 255.26 659.56 255.33 643.18 233.08 609.73 222.18 574.3 222.28 552.79 210.13 515.11 210.24 491.43 226.81 457.05 218.88 411.85 191.01 356.51 197.06 317.86 190.88 306.64 165.68 306.56 161.13 295.93 147.34 290.33 112.41 306.67 98.44 301.54 72.23 308.33 49.43 289.45 6.74 239.27 1.51 207.31 5.07 146.65 26.52 103.29 35.63 88.24 56.26 72.75"/><polyline class="cls-2" points="196.01 324.55 234.87 326.21 243.87 328.21 246.87 330.21 246.87 324.21 245.87 319.21 238.87 311.21 238.87 307.21 235.87 307.21 235.87 297.21 233.87 294.21 241.87 283.21 242.87 279.21 238.87 273.21 229.87 267.21 231.87 263.21 242.87 263.21 238.87 258.21 238.87 246.21 236.87 244.21 236.87 241.21 233.87 240.21 233.87 238.21 229.87 237.21 231.87 243.21 233.87 244.21 234.87 251.21 231.87 252.21 228.87 252.21 225.87 255.21 226.87 259.21 224.87 262.21 223.87 267.21 221.87 267.21 219.87 273.21 215.87 275.21 210.87 289.21 206.87 290.21 202.87 286.21 198.87 287.21 188.87 296.21 188.87 302.21 185.25 306.62 190.87 306.21 196.87 318.21 196.01 324.55"/></g></g></svg>