<svg xmlns="http://www.w3.org/2000/svg" xmlns:xlink="http://www.w3.org/1999/xlink" viewBox="0 0 116.71 107.01"><defs><style>.cls-1{fill:#333;}.cls-2{fill:#ffcf06;}.cls-3{fill:#212120;stroke:#636363;stroke-miterlimit:10;}.cls-4{fill:#303030;}.cls-5{fill:none;}.cls-6{fill:url(#Dégradé_sans_nom);}.cls-7{fill:#bbecff;}.cls-8{fill:#939393;}.cls-9{fill:url(#Dégradé_sans_nom_6);}.cls-10{fill:url(#Dégradé_sans_nom_6-2);}.cls-11{fill:url(#Dégradé_sans_nom_6-3);}.cls-12{fill:url(#Dégradé_sans_nom_6-4);}.cls-13{fill:url(#Dégradé_sans_nom_6-5);}.cls-14{fill:#ff9803;}.cls-15{fill:#595959;}</style><linearGradient id="Dégradé_sans_nom" x1="5.46" y1="18.6" x2="5.46" y2="18.6" gradientTransform="translate(117.06 109.89) rotate(180)" gradientUnits="userSpaceOnUse"><stop offset="0" stop-color="#cdcecf"/><stop offset="1" stop-color="#848586"/></linearGradient><linearGradient id="Dégradé_sans_nom_6" x1="45.47" y1="10.94" x2="52.5" y2="10.94" gradientTransform="translate(117.06 109.89) rotate(180)" gradientUnits="userSpaceOnUse"><stop offset="0" stop-color="#3f3f3f"/><stop offset="0.14" stop-color="#353535"/><stop offset="0.7" stop-color="#121212"/><stop offset="1" stop-color="#050505"/></linearGradient><linearGradient id="Dégradé_sans_nom_6-2" x1="59.94" y1="10.94" x2="66.97" y2="10.94" xlink:href="#Dégradé_sans_nom_6"/><linearGradient id="Dégradé_sans_nom_6-3" x1="74.53" y1="10.94" x2="81.56" y2="10.94" xlink:href="#Dégradé_sans_nom_6"/><linearGradient id="Dégradé_sans_nom_6-4" x1="102.47" y1="10.54" x2="109.5" y2="10.54" xlink:href="#Dégradé_sans_nom_6"/><linearGradient id="Dégradé_sans_nom_6-5" x1="89" y1="10.94" x2="96.03" y2="10.94" xlink:href="#Dégradé_sans_nom_6"/></defs><title>Fichier 1</title><g id="Calque_2" data-name="Calque 2"><g id="Calque_1-2" data-name="Calque 1"><g id="Calque_2-2" data-name="Calque 2"><g id="icons"><path class="cls-1" d="M112.87,56.21"/><path class="cls-2" d="M18.41,88.22H7.7s-.26-20.93,0-20.93H20.82l7.59-6.8h3.4V56.57h1.83v-5h2.88v5h2.09v3.66H40.7V45.32H62.63L73.1,62.85V88.23H62.63v3.15H72.86a7.59,7.59,0,1,1-.55,15.17H7.66a7.59,7.59,0,0,1,.55-15.17h10.2Z"/><path class="cls-3" d="M79.78,99h0a7.55,7.55,0,0,1-7.55,7.54H8.05A7.55,7.55,0,0,1,.5,99h0a7.55,7.55,0,0,1,7.55-7.54H72.23A7.55,7.55,0,0,1,79.78,99Z"/><path class="cls-4" d="M67.21,53,73,62.6,112.43,3.48h0A2.27,2.27,0,0,0,108.7.9Z"/><line class="cls-5" x1="110.51" y1="6.37" x2="112.43" y2="3.48"/><path class="cls-6" d="M111.6,91.3"/><polygon class="cls-7" points="46.06 80.12 69.7 80.12 69.7 63.64 61.06 48.2 46.14 48.2 46.06 80.12"/><circle class="cls-8" cx="68.08" cy="98.96" r="5.74"/><path class="cls-8" d="M68.08,98.95"/><circle class="cls-9" cx="68.08" cy="98.96" r="3.52"/><circle class="cls-8" cx="53.61" cy="98.96" r="5.74"/><path class="cls-8" d="M53.61,98.95"/><circle class="cls-10" cx="53.61" cy="98.96" r="3.52"/><circle class="cls-8" cx="39.02" cy="98.96" r="5.74"/><path class="cls-8" d="M39,98.95"/><circle class="cls-11" cx="39.02" cy="98.96" r="3.52"/><circle class="cls-8" cx="11.07" cy="99.36" r="5.74"/><path class="cls-8" d="M11.07,99.36"/><circle class="cls-12" cx="11.07" cy="99.36" r="3.52"/><circle class="cls-8" cx="24.55" cy="98.96" r="5.74"/><path class="cls-8" d="M24.55,98.95"/><circle class="cls-13" cx="24.55" cy="98.96" r="3.52"/><rect class="cls-14" x="18.41" y="88.23" width="44.22" height="2.66"/><circle class="cls-14" cx="69.2" cy="114.65"/><polygon class="cls-8" points="109.62 7.75 112.51 3.48 112.51 99.31 111.07 102.87 109.62 99.31 109.62 7.75"/><ellipse class="cls-15" cx="111.07" cy="93.51" rx="1.35" ry="5.86" transform="translate(-9.92 173.76) rotate(-73.65)"/><ellipse class="cls-15" cx="111.08" cy="88.23" rx="1.35" ry="5.86" transform="translate(-4.85 169.98) rotate(-73.65)"/><ellipse class="cls-15" cx="111.07" cy="82.94" rx="1.35" ry="5.86" transform="translate(0.22 166.18) rotate(-73.65)"/><ellipse class="cls-15" cx="111.07" cy="77.68" rx="1.35" ry="5.86" transform="translate(5.26 162.39) rotate(-73.65)"/><ellipse class="cls-15" cx="111.07" cy="72.4" rx="1.35" ry="5.86" transform="translate(10.33 158.6) rotate(-73.65)"/><ellipse class="cls-15" cx="111.07" cy="67.11" rx="1.35" ry="5.86" transform="translate(15.4 154.8) rotate(-73.65)"/><ellipse class="cls-15" cx="111.08" cy="61.84" rx="1.35" ry="5.86" transform="translate(20.47 151.01) rotate(-73.65)"/><ellipse class="cls-15" cx="111.07" cy="56.56" rx="1.35" ry="5.86" transform="translate(25.53 147.22) rotate(-73.65)"/><ellipse class="cls-15" cx="111.07" cy="51.27" rx="1.35" ry="5.86" transform="translate(30.6 143.42) rotate(-73.65)"/></g></g></g></g></svg>