<svg xmlns="http://www.w3.org/2000/svg" viewBox="0 0 362 228.72"><defs><style>.cls-1{isolation:isolate;}.cls-2{fill:#b3b3b3;}.cls-3{fill:#999;}.cls-4{fill:#ccc;}.cls-5{fill:#66f;}.cls-6{fill:#6c4633;}.cls-7{fill:#666;}.cls-8{fill:#ddd;}.cls-9{fill:#b5b5b5;}.cls-10{fill:#c69c6d;}.cls-11{fill:#630;}.cls-12,.cls-16{fill:none;}.cls-12{stroke:#630;stroke-miterlimit:10;stroke-width:9px;}.cls-13{fill:#ff6f4f;}.cls-14{fill:#ffb900;}.cls-15{fill:#453434;mix-blend-mode:soft-light;}.cls-16{stroke:#ff6760;stroke-linecap:round;stroke-linejoin:round;stroke-width:2.09px;}</style></defs><title>Fichier 2</title><g class="cls-1"><g id="Calque_2" data-name="Calque 2"><g id="Calque_2-2" data-name="Calque 2"><rect class="cls-2" x="67.59" y="127.84" width="24.15" height="71.88"/><rect class="cls-2" x="63.2" y="124.54" width="32.93" height="3.29"/><rect class="cls-3" x="163.2" y="16.67" width="6.08" height="100" transform="translate(63.24 213.2) rotate(-76.75)"/><rect class="cls-4" x="166.16" y="12.72" width="2.03" height="100" transform="translate(67.79 211.06) rotate(-76.75)"/><rect class="cls-2" x="67.59" y="103.69" width="24.15" height="20.85"/><rect class="cls-2" x="57.71" y="98.2" width="43.9" height="5.49"/><polygon class="cls-2" points="98.32 98.2 63.2 98.2 89.54 38.94 125.76 38.94 98.32 98.2"/><polygon class="cls-2" points="67.58 114.67 30.27 114.67 24.78 114.67 22.59 114.67 22.59 138.81 30.27 138.81 30.27 122.35 67.58 122.35 67.58 114.67"/><rect class="cls-5" x="24.78" y="138.81" width="3.29" height="89.9"/><rect class="cls-6" x="51" y="198.72" width="60" height="30"/><rect class="cls-7" x="67.59" y="127.84" width="24.15" height="1.1"/><rect class="cls-7" x="67.59" y="103.69" width="24.15" height="1.1"/><rect class="cls-8" x="57.71" y="98.2" width="43.9" height="1.1"/><rect class="cls-8" x="22.59" y="114.67" width="45" height="1.1"/><rect class="cls-8" x="63.2" y="124.54" width="32.93" height="1.1"/><polygon class="cls-8" points="125.76 38.94 124.84 40.92 88.62 40.92 89.54 38.94 125.76 38.94"/><polygon class="cls-9" points="0 187.72 52 187.72 43.95 228.72 7 228.72 0 187.72"/><polygon class="cls-8" points="0 186.72 0.38 188.66 51.62 188.66 52 186.72 0 186.72"/><rect class="cls-7" x="67.59" y="197.84" width="24.15" height="1.1"/><rect class="cls-10" x="51" y="198.72" width="60" height="1"/></g><g id="Calque_3" data-name="Calque 3"><circle class="cls-11" cx="354.68" cy="56.31" r="7.32"/><path class="cls-12" d="M336.69,122.73s11.52,27.85-10.66,33.14"/><path class="cls-12" d="M270.43,122.73S242.5,159.22,222.5,81.22"/><line class="cls-12" x1="315.54" y1="181.32" x2="315.89" y2="221.61"/><path class="cls-13" d="M311.68,220.23c4.46,2.42,8.23-1.21,8.23-1.21,15.13,2.4,10.2,9.36,10.2,9.36H311.68Z"/><line class="cls-12" x1="291.5" y1="181.32" x2="291.15" y2="221.61"/><path class="cls-14" d="M278.55,163.07l2.24,25.36,20.65.57,2.14-9.24s1.82,4.69,3.14,9.24l20-.57s-.84-21.8,1.27-25.36Z"/><path class="cls-13" d="M346.39,127.17c-11.39-22.78-32-25.76-32-25.76l-10.91,4.4-10.76-4.4s-19.3,1.11-30.68,23.89c0,0,6.76,6,11.82,7.89l4.45-7.6a383.53,383.53,0,0,0-2.71,40.5s8.27,2.45,27.34,2.54h.83c19.08-.08,27.61-2.54,27.61-2.54-2.41-21.24-2.48-40.5-2.48-40.5l4.45,5.68C338.44,129.36,346.39,127.17,346.39,127.17Z"/><rect class="cls-11" x="291.35" y="78.39" width="24.06" height="33.18" rx="11.81" ry="11.81"/><path class="cls-11" d="M354.36,49.94c0,27.58-25.89,49.95-49.95,49.95s-49.95-22.36-49.95-49.95a49.95,49.95,0,0,1,99.89,0Z"/><path class="cls-15" d="M304.42,98.12c-12.28,0-31.24-4-47.64-34.06,8.92,25.83,33,35.83,47.64,35.83,15.23,0,39.39-11,47.91-36.65C342.44,89.3,318.53,98.12,304.42,98.12Z"/><circle cx="286.3" cy="56.13" r="3.5"/><circle cx="322.53" cy="56.13" r="3.5"/><path class="cls-16" d="M320.4,74.92c-7.72,11.56-25.24,11.56-33,0"/><circle class="cls-11" cx="254.04" cy="57.27" r="7.32"/><path class="cls-11" d="M331.46,154.5c1.35,6.64-5,12.37-9.22,10.75s-.75-5.32-.75-5.32-3.58-.63-4.17-3.77a3.39,3.39,0,0,1,2.33-4s-4.3-.65-3.42-4.7S328.65,140.69,331.46,154.5Z"/><path class="cls-11" d="M223.37,85.85c-6.5,4.95-16,1.1-16.5-4.37s5.38-3.6,5.38-3.6-1.2-4.21,1.91-6.51a4.08,4.08,0,0,1,5.55.43s-1.54-5,3.32-6.17S236.9,75.57,223.37,85.85Z"/><path class="cls-13" d="M295.36,220.23c-4.46,2.42-8.23-1.21-8.23-1.21-15.12,2.4-10.2,9.36-10.2,9.36h18.43Z"/></g></g></g></svg>