<svg xmlns="http://www.w3.org/2000/svg" viewBox="0 0 405.58 412"><defs><style>.cls-1,.cls-5{fill:none;stroke-miterlimit:10;stroke-width:3px;}.cls-1{stroke:#897854;}.cls-2{fill:#b5b5b5;}.cls-3{fill:#cc961f;}.cls-4{fill:#794800;}.cls-5{stroke:#8e8e8e;}</style></defs><title>Fichier 1</title><g id="Calque_2" data-name="Calque 2"><g id="puit"><path class="cls-1" d="M89.5,408.5c30.76-6.95,32-62.13,32.53-128.73a8.38,8.38,0,0,1,8.33-8.27H166l-42.5-3h42L128.61,265C192.5,192.5,189.06,34,198.5,14.5c5.56-.5,42.56-.5,43,0,17.44,57.5,29,242.5,79,258,5,106.5,22,137,45.13,137l39.87-1-39-2,39-2-38-2,38-1-39-1"/><circle class="cls-2" cx="220" cy="26" r="26"/><rect class="cls-3" x="124" y="272" width="196" height="140"/><rect class="cls-4" x="213" y="14" width="15" height="258"/><polygon class="cls-2" points="0 345 84 345 71 412 13 412 0 345"/><line class="cls-5" x1="42" y1="350" x2="91" y2="408"/></g></g></svg>